<?xml version="1.0" encoding="utf-8"?>
<!-- Generator: Adobe Illustrator 26.5.0, SVG Export Plug-In . SVG Version: 6.00 Build 0)  -->
<svg version="1.1" id="Logo" xmlns="http://www.w3.org/2000/svg" xmlns:xlink="http://www.w3.org/1999/xlink" x="0px" y="0px"
	 viewBox="0 0 400 139.3" style="enable-background:new 0 0 400 139.3;" xml:space="preserve">
<style type="text/css">
	.st0{fill:#5F5E5E;}
</style>
<g id="megasol">
	<path class="st0" d="M117.3,96.3c-12.8,0-18.8-5.8-18.8-18.2c0-22.5,12.6-38.8,30-38.8c15.4,0,16.6,10,16.6,13.1
		c0,12-11.6,18.5-34.5,19.6c-0.2,1.7-0.4,3.5-0.4,5.2c0,7.4,2.1,9.3,10.4,9.3c5,0,9.9-1.1,14.5-3l1.4-0.6v9.9l-0.6,0.2
		C130,95.2,123.6,96.3,117.3,96.3z M127.4,48.5c-6.7,0-12.3,5.3-15.2,14.3c19.1-1,21.3-5.7,21.3-9.3C133.6,49,129.3,48.5,127.4,48.5
		z"/>
	<path class="st0" d="M158.2,122.5c-4.9,0.1-9.9-0.6-14.6-2.1l-0.9-0.3l2.8-11.4l1.1,0.5c4.3,1.9,9,2.9,13.8,2.9
		c11.2,0,16.7-4.5,18.8-15.5c0.9-5,2.1-10,3.6-14.9c-6.1,9.7-13.2,14.6-21,14.6c-8.5,0-12.8-5.7-12.8-17.1
		c0-19.8,10.6-39.9,34.3-39.9c5.6,0,11.3,0.5,16.8,1.6l1,0.2L190,99.4C187.1,114.7,176.4,122.5,158.2,122.5z M181.7,49
		c-14.4,0-21,14.8-21,28.5c0,5.8,1.5,8.7,4.4,8.7c9.1,0,19.8-20.1,22.4-33.1l0.6-3.3C186,49.2,183.9,49,181.7,49z"/>
	<path class="st0" d="M219.1,96.4c-8.5,0-12.8-5.8-12.8-17.1c0-19.8,10.6-39.9,34.3-39.9c5.6,0,11.3,0.5,16.8,1.6l1,0.2l-1.9,10.1
		c-4.3,22.5-6.1,31.9-8.1,43.2l-0.1,0.8h-11.6l0.2-1.2c0.6-3.1,1.8-7.3,3.4-12.8C234.1,91.3,227,96.4,219.1,96.4z M238.9,49
		c-14.4,0-21,14.8-21,28.5c0,5.8,1.5,8.7,4.4,8.7c9.1,0,19.8-20.1,22.4-33.1l0.6-3.3C243.2,49.2,241.1,49,238.9,49L238.9,49z"/>
	<path class="st0" d="M375.1,96.3h-13.5l15.3-77.5c-0.7-0.9-1.4-1.9-2.2-2.8c-29.5-24.5-73.3-20.5-97.9,9
		c-10.4,12.5-16.1,28.3-16.1,44.6c0,4.3,0.4,8.5,1.2,12.7l2.1,0.7c3.8,1.2,8.6,2.3,10.9,2.3c3.6,0,9.6-0.8,9.6-6.3
		c0-2.6-2.2-4.4-5.9-7.1c-4.5-3.3-10.1-7.4-10.1-15.5c0-11,9-18.1,23-18.1c3.1,0,6.3,0.3,9.4,0.8l2.1,0.3l-2.6,12.1l-2.1-0.7
		c-2.4-0.8-4.9-1.2-7.4-1.2c-5.3,0-8.5,2.2-8.5,5.8c0,2.8,2.9,5,6.2,7.6c4.4,3.4,9.9,7.5,9.9,15c0,9.3-7.8,19.3-24.8,19.3
		c-2.5,0-4.9-0.1-7.4-0.4c2.7,6.2,6.2,12.1,10.5,17.3c29.6,24.5,73.5,20.4,98-9.2c15.6-18.9,20.2-44.6,12-67.7L375.1,96.3z
		 M325.9,97.3c-14,0-21.4-7.2-21.4-20.9c0-21.7,14.1-38.1,32.7-38.1c13.8,0,21.8,7.7,21.8,21.1C359,83.1,342.2,97.3,325.9,97.3"/>
	<path class="st0" d="M335.7,50.4c-10.8,0-17.4,12.6-17.4,24.4c0,7.2,2.7,10.3,9.2,10.3c9.8,0,17.4-10.8,17.4-24.6
		C344.9,53.5,342.1,50.4,335.7,50.4"/>
	<path class="st0" d="M82.6,95.3H71.1l6.7-35.2c0.9-4.9,0.8-8.2-0.5-9.8c-0.7-0.8-1.7-1.2-2.8-1.1c-8.2,0-19.1,18.6-21.9,33.3
		l-2.4,12.8H38.8l6.7-35.2c1-5,0.8-8.2-0.5-9.7c-0.8-0.8-1.8-1.2-2.9-1.1c-8,0-19,18.7-21.8,33.3l-2.4,12.8H6.5l5.6-29
		c1-5.1,2.1-11,3.1-16.6H0v-9.5h28.2L28,41.4c-0.8,4-1.8,7.9-3,11.8c4.4-6.8,11.2-14,20.4-14c7.4,0,11.7,4.1,11.7,11.4
		c0,1.3-0.1,2.5-0.3,3.8c4.4-7.1,11.4-15.2,21.1-15.2c4.3,0,7.5,1.3,9.6,3.9c2.7,3.3,3.4,8.5,2.1,15.4L82.6,95.3z"/>
	<path class="st0" d="M387.8,32.6c18.4,33.7,6,76-27.7,94.4c-26.3,14.4-58.7,10.3-80.7-10c26.1,28.2,70.1,29.9,98.3,3.8
		c25.2-23.3,29.6-61.5,10.4-89.9L387.8,32.6z"/>
</g>
</svg>
